<?xml version="1.0" encoding="UTF-8"?>
<svg xmlns="http://www.w3.org/2000/svg" viewBox="1100 1200 4900 3500" style="shape-rendering:geometricPrecision; text-rendering:geometricPrecision; fill-rule:evenodd; clip-rule:evenodd">
 <defs>
  <style type="text/css">
   .fil5 {fill:#FBAF30}
   .fil3 {fill:black}
  </style>
 </defs>
 <g>
  <!-- Logo Icon -->
  <g>
   <path class="fil5" d="M3508.96 1337.04c468.67,0 834.45,365.61 894.72,812.03 -237.29,-202.41 -480.91,-583.93 -874.85,-583.93 -292.17,0 -539.61,188.67 -623.95,449.17l-259.86 -13.9c116.19,-384.62 459.04,-663.37 863.94,-663.37z"/>
   <path class="fil3" d="M3743.46 2166.55l-1116.11 -62.54c-87.38,279.13 35.61,557.72 275.48,838.43 176.55,-308.4 522.89,-519.8 906.27,-609.46 127.69,-26.56 118.33,-161.9 -65.64,-166.42zm-30.94 66.29l-144.18 17.37 8.67 43.06 140.81 -20.26 -5.3 -40.17zm-269.8 41.25l-144.18 17.37 8.67 43.07 140.81 -20.26 -5.3 -40.17zm-515.78 108.07l-250.4 66.31 11.02 51.34 255.59 -72.4 -16.2 -45.25zm252.44 -55.05l-142.17 30.11 12.29 42.13 138.56 -32.7 -8.68 -39.54z"/>
   <path class="fil3" d="M4414.4 2364c-376.92,350.39 -732.81,873.71 -1270.61,445.82 -91.98,70.44 -130.48,152.81 -150.25,234.67 162.64,177.57 331.96,349.32 520.85,503.93 311.23,-256.1 858.97,-757.53 900.01,-1184.43z"/>
   <path class="fil5" d="M3396.24 1732.76c133.99,-30.82 280.09,-28.84 395.51,8.7 188.41,178.36 361.76,348.02 550.17,526.38 -227.36,165.62 -452.91,492.45 -679.36,535.08l-268.13 -20.01c185.29,-192.3 373.2,-345.28 558.88,-527.92l-557.06 -522.23z"/>
  </g>
  <!-- BASELINE DRIVERS Text -->
  <text x="1235.37" y="4219.87" fill="#FDBA2F" font-family="Arial, sans-serif" font-weight="bold" font-size="487.65px">BASELINE</text>
  <text x="3669.71" y="4219.87" fill="black" font-family="Arial, sans-serif" font-weight="bold" font-size="487.65px">DRIVERS</text>
  <!-- Registered Trademark -->
  <g>
   <path fill="black" d="M5867.07 3616.28c56.83,0 102.91,46.07 102.91,102.91 0,56.83 -46.07,102.91 -102.91,102.91 -56.83,0 -102.91,-46.07 -102.91,-102.91 0,-56.83 46.07,-102.91 102.91,-102.91zm0 18.29c46.73,0 84.61,37.88 84.61,84.61 0,46.73 -37.88,84.61 -84.61,84.61 -46.73,0 -84.61,-37.88 -84.61,-84.61 0,-46.73 37.88,-84.61 84.61,-84.61z"/>
   <text x="5816.05" y="3766.49" fill="black" font-family="Arial, sans-serif" font-weight="bold" font-size="142.57px">R</text>
  </g>
  <!-- Tagline -->
  <text x="1582.77" y="4520.36" fill="#4D4D4D" font-family="Arial, sans-serif" font-weight="bold" font-size="247.34px">transportation jobboard</text>
 </g>
</svg>
